<svg xmlns="http://www.w3.org/2000/svg" width="1200" height="900" viewBox="0 0 1200 900">
  <defs>
    <style>
      .o{fill:none;stroke:#0B1220;stroke-width:6;stroke-linecap:round;stroke-linejoin:round}
      .f1{fill:#FFCD1B;stroke:#0B1220;stroke-width:6;stroke-linecap:round;stroke-linejoin:round}
      .f2{fill:#F7FAFF;stroke:#0B1220;stroke-width:6;stroke-linecap:round;stroke-linejoin:round}
      .t{font-family:ui-sans-serif,system-ui,-apple-system,Segoe UI,Roboto;fill:#0B1220}
    </style>
  </defs>

  <!-- playful outline illustration placeholder -->
  <rect x="24" y="24" width="1152" height="852" rx="28" class="f2"/>
  <path d="M216 315 C 300 162, 576 162, 660 315 C 744 468, 996 468, 960 630 C 924 792, 624 756, 576 648 C 528 540, 264 522, 216 315 Z" class="o"/>
  <rect x="192" y="522" width="360" height="180" rx="18" class="f1"/>
  <path d="M264 594 h216" class="o"/>
  <path d="M264 639 h168" class="o"/>
  <path d="M624 270 l144 -90" class="o"/>
  <path d="M624 270 l-168 -18" class="o"/>
  <circle cx="864" cy="270" r="45" class="f1"/>

  <text x="600" y="108" text-anchor="middle" class="t" font-size="45" font-weight="800">Hero Desktop</text>
  <text x="600" y="162" text-anchor="middle" class="t" font-size="31" opacity="0.75">Ilustración placeholder</text>

  <text x="600" y="854" text-anchor="middle" class="t" font-size="27" opacity="0.55">Reemplazar por ilustración final (sin copyright)</text>
</svg>
